<svg width="60" height="60" viewBox="0 0 60 60" fill="none" xmlns="http://www.w3.org/2000/svg">
<g id="Group 38">
<g id="Group 35">
<rect id="Rectangle 18" width="60" height="60" rx="7" fill="#A73EED"/>
<g id="Group">
<path id="Vector" d="M32.9747 30.328C32.9747 31.7896 31.7896 32.9747 30.328 32.9747C28.8665 32.9747 27.6814 31.7896 27.6814 30.328C27.6814 28.8665 28.8665 27.6814 30.328 27.6814C31.7896 27.6814 32.9747 28.8665 32.9747 30.328Z" fill="white"/>
<path id="Vector_2" d="M30.3281 13.125C20.8002 13.125 13.125 20.8002 13.125 30.3281C13.125 39.856 20.8002 47.5312 30.3281 47.5312C39.856 47.5312 47.5312 39.856 47.5312 30.3281C47.5312 20.8002 39.856 13.125 30.3281 13.125ZM21.0649 22.3882C21.0649 21.5942 21.5942 21.0649 22.3882 21.0649C23.1822 21.0649 23.7115 21.5942 23.7115 22.3882C23.7115 23.1822 23.1822 23.7115 22.3882 23.7115C21.5942 23.7115 21.0649 23.1822 21.0649 22.3882ZM30.4605 37.077L23.1822 39.062C22.2559 39.3267 21.3296 38.4004 21.5942 37.474L23.5792 30.1958C24.5055 27.0198 26.8875 24.5055 30.0635 23.7115L37.3417 21.7266C38.268 21.4619 39.1943 22.3882 38.9297 23.3145L36.9447 30.5928C36.1507 33.6364 33.6364 36.1507 30.4605 37.077ZM38.268 39.5913C37.474 39.5913 36.9447 39.062 36.9447 38.268C36.9447 37.474 37.474 36.9447 38.268 36.9447C39.062 36.9447 39.5913 37.474 39.5913 38.268C39.5913 39.062 39.062 39.5913 38.268 39.5913Z" fill="white"/>
</g>
</g>
</g>
</svg>
