<svg viewBox="0 0 1024.013 1066.744" xmlns="http://www.w3.org/2000/svg"><path d="M766.875 1045.333H252.6C113.16 1045.178.167 932.183.01 792.763v-.016c-.008-.73-.012-1.593-.012-2.456 0-63.834 23.987-122.066 63.438-166.174l-.21.24 346.93-384.478h203.298l347.113 384.66c39.24 43.868 63.226 102.1 63.226 165.935 0 .864-.004 1.727-.013 2.588v-.13 1.32c-3.017 69.468-32.66 131.476-78.904 176.527l-.058.055c-45.52 45.7-108.38 74.103-177.873 74.5h-.077zM114.2 669.866c-28.507 31.67-45.944 73.797-45.944 119.997 0 1.014.008 2.025.025 3.035v-.152c.128 101.745 82.574 184.19 184.307 184.32h514.288c101.638-3.258 183.463-83.738 188.85-184.514l.02-.49c.01-.666.015-1.455.015-2.244 0-46.184-17.433-88.296-46.078-120.114l.144.162-326.542-361.813H440.698zM292.877 21.333h429.17l-26.35 131.664c-9.11 45.117-33.19 83.508-66.73 110.678l-.355.278c-32.667 27.132-74.936 43.724-121.07 44.1h-.08l-.526.002c-92.802 0-170.157-66.134-187.51-153.843l-.2-1.214zM638.76 89.6H376.163l10.103 50.608c11.324 57.116 61.028 99.58 120.65 99.58h.576-.03c59.4-.985 108.73-42.917 121.042-98.743l.155-.836v-.41zM624.2 274.193l-30.538-61.076L827.633 96.153l30.538 61.03zm263.282 33.86H559.8v-68.267h327.68zM530.217 826.88h-143.36v-68.267h143.36c.492.03 1.068.05 1.647.05 7.728 0 14.724-3.133 19.79-8.196 5.062-5.065 8.194-12.06 8.194-19.79 0-.578-.018-1.154-.052-1.725l.004.078c.03-.492.05-1.068.05-1.647 0-7.728-3.133-14.724-8.196-19.79-5.065-5.062-12.06-8.194-19.79-8.194-.578 0-1.154.017-1.725.05l.077-.003h-45.51c-.31.004-.675.006-1.04.006-26.735 0-50.938-10.838-68.457-28.36-17.522-17.517-28.36-41.72-28.36-68.455 0-.366.003-.73.007-1.095v.056c-.004-.31-.006-.675-.006-1.04 0-26.735 10.84-50.938 28.36-68.457 17.518-17.522 41.72-28.36 68.456-28.36.366 0 .73.003 1.095.007h143.305v68.267h-143.36c-.492-.03-1.068-.05-1.647-.05-7.728 0-14.724 3.133-19.79 8.196-5.062 5.065-8.194 12.06-8.194 19.79 0 .578.018 1.154.052 1.725l-.004-.078c-.03.492-.05 1.068-.05 1.647 0 7.728 3.133 14.724 8.196 19.79 5.065 5.062 12.06 8.194 19.79 8.194.578 0 1.154-.017 1.725-.05l-.078.003h45.51c.31-.004.675-.006 1.04-.006 26.735 0 50.938 10.838 68.457 28.36 17.522 17.517 28.36 41.72 28.36 68.455 0 .366-.003.73-.007 1.095v-.056c.004.31.006.675.006 1.04 0 26.735-10.837 50.938-28.358 68.457-17.518 17.522-41.72 28.36-68.456 28.36-.366 0-.73-.003-1.095-.007h.057zm11.378-259.414h-68.267V453.688h68.267zm0 304.925h-68.267V758.614h68.267z"/></svg>